<?xml version="1.0" encoding="utf-8"?>
<svg xmlns="http://www.w3.org/2000/svg" xmlns:xlink="http://www.w3.org/1999/xlink" xml:space="preserve" width="232" height="232" viewBox="0 0 232 232"><g fill="#000000">
<g transform="translate(88,16) scale(1.3733333333333)"><circle cx="3" cy="3" r="3"/></g>
<g transform="translate(112,16) scale(1.3733333333333)"><circle cx="3" cy="3" r="3"/></g>
<g transform="translate(120,16) scale(1.3733333333333)"><circle cx="3" cy="3" r="3"/></g>
<g transform="translate(144,16) scale(1.3733333333333)"><circle cx="3" cy="3" r="3"/></g>
<g transform="translate(88,24) scale(1.3733333333333)"><circle cx="3" cy="3" r="3"/></g>
<g transform="translate(96,24) scale(1.3733333333333)"><circle cx="3" cy="3" r="3"/></g>
<g transform="translate(104,24) scale(1.3733333333333)"><circle cx="3" cy="3" r="3"/></g>
<g transform="translate(112,24) scale(1.3733333333333)"><circle cx="3" cy="3" r="3"/></g>
<g transform="translate(136,24) scale(1.3733333333333)"><circle cx="3" cy="3" r="3"/></g>
<g transform="translate(80,32) scale(1.3733333333333)"><circle cx="3" cy="3" r="3"/></g>
<g transform="translate(88,32) scale(1.3733333333333)"><circle cx="3" cy="3" r="3"/></g>
<g transform="translate(96,32) scale(1.3733333333333)"><circle cx="3" cy="3" r="3"/></g>
<g transform="translate(104,32) scale(1.3733333333333)"><circle cx="3" cy="3" r="3"/></g>
<g transform="translate(112,32) scale(1.3733333333333)"><circle cx="3" cy="3" r="3"/></g>
<g transform="translate(136,32) scale(1.3733333333333)"><circle cx="3" cy="3" r="3"/></g>
<g transform="translate(144,32) scale(1.3733333333333)"><circle cx="3" cy="3" r="3"/></g>
<g transform="translate(80,40) scale(1.3733333333333)"><circle cx="3" cy="3" r="3"/></g>
<g transform="translate(88,40) scale(1.3733333333333)"><circle cx="3" cy="3" r="3"/></g>
<g transform="translate(96,40) scale(1.3733333333333)"><circle cx="3" cy="3" r="3"/></g>
<g transform="translate(112,40) scale(1.3733333333333)"><circle cx="3" cy="3" r="3"/></g>
<g transform="translate(120,40) scale(1.3733333333333)"><circle cx="3" cy="3" r="3"/></g>
<g transform="translate(128,40) scale(1.3733333333333)"><circle cx="3" cy="3" r="3"/></g>
<g transform="translate(136,40) scale(1.3733333333333)"><circle cx="3" cy="3" r="3"/></g>
<g transform="translate(144,40) scale(1.3733333333333)"><circle cx="3" cy="3" r="3"/></g>
<g transform="translate(80,48) scale(1.3733333333333)"><circle cx="3" cy="3" r="3"/></g>
<g transform="translate(88,48) scale(1.3733333333333)"><circle cx="3" cy="3" r="3"/></g>
<g transform="translate(104,48) scale(1.3733333333333)"><circle cx="3" cy="3" r="3"/></g>
<g transform="translate(112,48) scale(1.3733333333333)"><circle cx="3" cy="3" r="3"/></g>
<g transform="translate(128,48) scale(1.3733333333333)"><circle cx="3" cy="3" r="3"/></g>
<g transform="translate(144,48) scale(1.3733333333333)"><circle cx="3" cy="3" r="3"/></g>
<g transform="translate(80,56) scale(1.3733333333333)"><circle cx="3" cy="3" r="3"/></g>
<g transform="translate(104,56) scale(1.3733333333333)"><circle cx="3" cy="3" r="3"/></g>
<g transform="translate(112,56) scale(1.3733333333333)"><circle cx="3" cy="3" r="3"/></g>
<g transform="translate(128,56) scale(1.3733333333333)"><circle cx="3" cy="3" r="3"/></g>
<g transform="translate(136,56) scale(1.3733333333333)"><circle cx="3" cy="3" r="3"/></g>
<g transform="translate(144,56) scale(1.3733333333333)"><circle cx="3" cy="3" r="3"/></g>
<g transform="translate(80,64) scale(1.3733333333333)"><circle cx="3" cy="3" r="3"/></g>
<g transform="translate(96,64) scale(1.3733333333333)"><circle cx="3" cy="3" r="3"/></g>
<g transform="translate(112,64) scale(1.3733333333333)"><circle cx="3" cy="3" r="3"/></g>
<g transform="translate(128,64) scale(1.3733333333333)"><circle cx="3" cy="3" r="3"/></g>
<g transform="translate(144,64) scale(1.3733333333333)"><circle cx="3" cy="3" r="3"/></g>
<g transform="translate(80,72) scale(1.3733333333333)"><circle cx="3" cy="3" r="3"/></g>
<g transform="translate(88,72) scale(1.3733333333333)"><circle cx="3" cy="3" r="3"/></g>
<g transform="translate(96,72) scale(1.3733333333333)"><circle cx="3" cy="3" r="3"/></g>
<g transform="translate(104,72) scale(1.3733333333333)"><circle cx="3" cy="3" r="3"/></g>
<g transform="translate(112,72) scale(1.3733333333333)"><circle cx="3" cy="3" r="3"/></g>
<g transform="translate(128,72) scale(1.3733333333333)"><circle cx="3" cy="3" r="3"/></g>
<g transform="translate(136,72) scale(1.3733333333333)"><circle cx="3" cy="3" r="3"/></g>
<g transform="translate(16,80) scale(1.3733333333333)"><circle cx="3" cy="3" r="3"/></g>
<g transform="translate(32,80) scale(1.3733333333333)"><circle cx="3" cy="3" r="3"/></g>
<g transform="translate(40,80) scale(1.3733333333333)"><circle cx="3" cy="3" r="3"/></g>
<g transform="translate(48,80) scale(1.3733333333333)"><circle cx="3" cy="3" r="3"/></g>
<g transform="translate(56,80) scale(1.3733333333333)"><circle cx="3" cy="3" r="3"/></g>
<g transform="translate(64,80) scale(1.3733333333333)"><circle cx="3" cy="3" r="3"/></g>
<g transform="translate(120,80) scale(1.3733333333333)"><circle cx="3" cy="3" r="3"/></g>
<g transform="translate(128,80) scale(1.3733333333333)"><circle cx="3" cy="3" r="3"/></g>
<g transform="translate(160,80) scale(1.3733333333333)"><circle cx="3" cy="3" r="3"/></g>
<g transform="translate(168,80) scale(1.3733333333333)"><circle cx="3" cy="3" r="3"/></g>
<g transform="translate(176,80) scale(1.3733333333333)"><circle cx="3" cy="3" r="3"/></g>
<g transform="translate(184,80) scale(1.3733333333333)"><circle cx="3" cy="3" r="3"/></g>
<g transform="translate(192,80) scale(1.3733333333333)"><circle cx="3" cy="3" r="3"/></g>
<g transform="translate(16,88) scale(1.3733333333333)"><circle cx="3" cy="3" r="3"/></g>
<g transform="translate(32,88) scale(1.3733333333333)"><circle cx="3" cy="3" r="3"/></g>
<g transform="translate(40,88) scale(1.3733333333333)"><circle cx="3" cy="3" r="3"/></g>
<g transform="translate(48,88) scale(1.3733333333333)"><circle cx="3" cy="3" r="3"/></g>
<g transform="translate(56,88) scale(1.3733333333333)"><circle cx="3" cy="3" r="3"/></g>
<g transform="translate(88,88) scale(1.3733333333333)"><circle cx="3" cy="3" r="3"/></g>
<g transform="translate(104,88) scale(1.3733333333333)"><circle cx="3" cy="3" r="3"/></g>
<g transform="translate(144,88) scale(1.3733333333333)"><circle cx="3" cy="3" r="3"/></g>
<g transform="translate(168,88) scale(1.3733333333333)"><circle cx="3" cy="3" r="3"/></g>
<g transform="translate(200,88) scale(1.3733333333333)"><circle cx="3" cy="3" r="3"/></g>
<g transform="translate(24,96) scale(1.3733333333333)"><circle cx="3" cy="3" r="3"/></g>
<g transform="translate(48,96) scale(1.3733333333333)"><circle cx="3" cy="3" r="3"/></g>
<g transform="translate(56,96) scale(1.3733333333333)"><circle cx="3" cy="3" r="3"/></g>
<g transform="translate(64,96) scale(1.3733333333333)"><circle cx="3" cy="3" r="3"/></g>
<g transform="translate(72,96) scale(1.3733333333333)"><circle cx="3" cy="3" r="3"/></g>
<g transform="translate(80,96) scale(1.3733333333333)"><circle cx="3" cy="3" r="3"/></g>
<g transform="translate(88,96) scale(1.3733333333333)"><circle cx="3" cy="3" r="3"/></g>
<g transform="translate(96,96) scale(1.3733333333333)"><circle cx="3" cy="3" r="3"/></g>
<g transform="translate(104,96) scale(1.3733333333333)"><circle cx="3" cy="3" r="3"/></g>
<g transform="translate(120,96) scale(1.3733333333333)"><circle cx="3" cy="3" r="3"/></g>
<g transform="translate(136,96) scale(1.3733333333333)"><circle cx="3" cy="3" r="3"/></g>
<g transform="translate(144,96) scale(1.3733333333333)"><circle cx="3" cy="3" r="3"/></g>
<g transform="translate(152,96) scale(1.3733333333333)"><circle cx="3" cy="3" r="3"/></g>
<g transform="translate(176,96) scale(1.3733333333333)"><circle cx="3" cy="3" r="3"/></g>
<g transform="translate(184,96) scale(1.3733333333333)"><circle cx="3" cy="3" r="3"/></g>
<g transform="translate(200,96) scale(1.3733333333333)"><circle cx="3" cy="3" r="3"/></g>
<g transform="translate(208,96) scale(1.3733333333333)"><circle cx="3" cy="3" r="3"/></g>
<g transform="translate(32,104) scale(1.3733333333333)"><circle cx="3" cy="3" r="3"/></g>
<g transform="translate(56,104) scale(1.3733333333333)"><circle cx="3" cy="3" r="3"/></g>
<g transform="translate(72,104) scale(1.3733333333333)"><circle cx="3" cy="3" r="3"/></g>
<g transform="translate(80,104) scale(1.3733333333333)"><circle cx="3" cy="3" r="3"/></g>
<g transform="translate(104,104) scale(1.3733333333333)"><circle cx="3" cy="3" r="3"/></g>
<g transform="translate(144,104) scale(1.3733333333333)"><circle cx="3" cy="3" r="3"/></g>
<g transform="translate(152,104) scale(1.3733333333333)"><circle cx="3" cy="3" r="3"/></g>
<g transform="translate(208,104) scale(1.3733333333333)"><circle cx="3" cy="3" r="3"/></g>
<g transform="translate(64,112) scale(1.3733333333333)"><circle cx="3" cy="3" r="3"/></g>
<g transform="translate(72,112) scale(1.3733333333333)"><circle cx="3" cy="3" r="3"/></g>
<g transform="translate(80,112) scale(1.3733333333333)"><circle cx="3" cy="3" r="3"/></g>
<g transform="translate(120,112) scale(1.3733333333333)"><circle cx="3" cy="3" r="3"/></g>
<g transform="translate(136,112) scale(1.3733333333333)"><circle cx="3" cy="3" r="3"/></g>
<g transform="translate(152,112) scale(1.3733333333333)"><circle cx="3" cy="3" r="3"/></g>
<g transform="translate(160,112) scale(1.3733333333333)"><circle cx="3" cy="3" r="3"/></g>
<g transform="translate(176,112) scale(1.3733333333333)"><circle cx="3" cy="3" r="3"/></g>
<g transform="translate(192,112) scale(1.3733333333333)"><circle cx="3" cy="3" r="3"/></g>
<g transform="translate(200,112) scale(1.3733333333333)"><circle cx="3" cy="3" r="3"/></g>
<g transform="translate(208,112) scale(1.3733333333333)"><circle cx="3" cy="3" r="3"/></g>
<g transform="translate(16,120) scale(1.3733333333333)"><circle cx="3" cy="3" r="3"/></g>
<g transform="translate(32,120) scale(1.3733333333333)"><circle cx="3" cy="3" r="3"/></g>
<g transform="translate(40,120) scale(1.3733333333333)"><circle cx="3" cy="3" r="3"/></g>
<g transform="translate(80,120) scale(1.3733333333333)"><circle cx="3" cy="3" r="3"/></g>
<g transform="translate(88,120) scale(1.3733333333333)"><circle cx="3" cy="3" r="3"/></g>
<g transform="translate(112,120) scale(1.3733333333333)"><circle cx="3" cy="3" r="3"/></g>
<g transform="translate(120,120) scale(1.3733333333333)"><circle cx="3" cy="3" r="3"/></g>
<g transform="translate(144,120) scale(1.3733333333333)"><circle cx="3" cy="3" r="3"/></g>
<g transform="translate(152,120) scale(1.3733333333333)"><circle cx="3" cy="3" r="3"/></g>
<g transform="translate(168,120) scale(1.3733333333333)"><circle cx="3" cy="3" r="3"/></g>
<g transform="translate(184,120) scale(1.3733333333333)"><circle cx="3" cy="3" r="3"/></g>
<g transform="translate(200,120) scale(1.3733333333333)"><circle cx="3" cy="3" r="3"/></g>
<g transform="translate(16,128) scale(1.3733333333333)"><circle cx="3" cy="3" r="3"/></g>
<g transform="translate(32,128) scale(1.3733333333333)"><circle cx="3" cy="3" r="3"/></g>
<g transform="translate(40,128) scale(1.3733333333333)"><circle cx="3" cy="3" r="3"/></g>
<g transform="translate(48,128) scale(1.3733333333333)"><circle cx="3" cy="3" r="3"/></g>
<g transform="translate(64,128) scale(1.3733333333333)"><circle cx="3" cy="3" r="3"/></g>
<g transform="translate(72,128) scale(1.3733333333333)"><circle cx="3" cy="3" r="3"/></g>
<g transform="translate(88,128) scale(1.3733333333333)"><circle cx="3" cy="3" r="3"/></g>
<g transform="translate(96,128) scale(1.3733333333333)"><circle cx="3" cy="3" r="3"/></g>
<g transform="translate(120,128) scale(1.3733333333333)"><circle cx="3" cy="3" r="3"/></g>
<g transform="translate(128,128) scale(1.3733333333333)"><circle cx="3" cy="3" r="3"/></g>
<g transform="translate(136,128) scale(1.3733333333333)"><circle cx="3" cy="3" r="3"/></g>
<g transform="translate(152,128) scale(1.3733333333333)"><circle cx="3" cy="3" r="3"/></g>
<g transform="translate(160,128) scale(1.3733333333333)"><circle cx="3" cy="3" r="3"/></g>
<g transform="translate(168,128) scale(1.3733333333333)"><circle cx="3" cy="3" r="3"/></g>
<g transform="translate(176,128) scale(1.3733333333333)"><circle cx="3" cy="3" r="3"/></g>
<g transform="translate(184,128) scale(1.3733333333333)"><circle cx="3" cy="3" r="3"/></g>
<g transform="translate(200,128) scale(1.3733333333333)"><circle cx="3" cy="3" r="3"/></g>
<g transform="translate(208,128) scale(1.3733333333333)"><circle cx="3" cy="3" r="3"/></g>
<g transform="translate(16,136) scale(1.3733333333333)"><circle cx="3" cy="3" r="3"/></g>
<g transform="translate(32,136) scale(1.3733333333333)"><circle cx="3" cy="3" r="3"/></g>
<g transform="translate(72,136) scale(1.3733333333333)"><circle cx="3" cy="3" r="3"/></g>
<g transform="translate(88,136) scale(1.3733333333333)"><circle cx="3" cy="3" r="3"/></g>
<g transform="translate(96,136) scale(1.3733333333333)"><circle cx="3" cy="3" r="3"/></g>
<g transform="translate(112,136) scale(1.3733333333333)"><circle cx="3" cy="3" r="3"/></g>
<g transform="translate(144,136) scale(1.3733333333333)"><circle cx="3" cy="3" r="3"/></g>
<g transform="translate(152,136) scale(1.3733333333333)"><circle cx="3" cy="3" r="3"/></g>
<g transform="translate(160,136) scale(1.3733333333333)"><circle cx="3" cy="3" r="3"/></g>
<g transform="translate(168,136) scale(1.3733333333333)"><circle cx="3" cy="3" r="3"/></g>
<g transform="translate(176,136) scale(1.3733333333333)"><circle cx="3" cy="3" r="3"/></g>
<g transform="translate(208,136) scale(1.3733333333333)"><circle cx="3" cy="3" r="3"/></g>
<g transform="translate(16,144) scale(1.3733333333333)"><circle cx="3" cy="3" r="3"/></g>
<g transform="translate(32,144) scale(1.3733333333333)"><circle cx="3" cy="3" r="3"/></g>
<g transform="translate(40,144) scale(1.3733333333333)"><circle cx="3" cy="3" r="3"/></g>
<g transform="translate(56,144) scale(1.3733333333333)"><circle cx="3" cy="3" r="3"/></g>
<g transform="translate(64,144) scale(1.3733333333333)"><circle cx="3" cy="3" r="3"/></g>
<g transform="translate(72,144) scale(1.3733333333333)"><circle cx="3" cy="3" r="3"/></g>
<g transform="translate(80,144) scale(1.3733333333333)"><circle cx="3" cy="3" r="3"/></g>
<g transform="translate(88,144) scale(1.3733333333333)"><circle cx="3" cy="3" r="3"/></g>
<g transform="translate(96,144) scale(1.3733333333333)"><circle cx="3" cy="3" r="3"/></g>
<g transform="translate(112,144) scale(1.3733333333333)"><circle cx="3" cy="3" r="3"/></g>
<g transform="translate(120,144) scale(1.3733333333333)"><circle cx="3" cy="3" r="3"/></g>
<g transform="translate(128,144) scale(1.3733333333333)"><circle cx="3" cy="3" r="3"/></g>
<g transform="translate(144,144) scale(1.3733333333333)"><circle cx="3" cy="3" r="3"/></g>
<g transform="translate(152,144) scale(1.3733333333333)"><circle cx="3" cy="3" r="3"/></g>
<g transform="translate(160,144) scale(1.3733333333333)"><circle cx="3" cy="3" r="3"/></g>
<g transform="translate(168,144) scale(1.3733333333333)"><circle cx="3" cy="3" r="3"/></g>
<g transform="translate(176,144) scale(1.3733333333333)"><circle cx="3" cy="3" r="3"/></g>
<g transform="translate(192,144) scale(1.3733333333333)"><circle cx="3" cy="3" r="3"/></g>
<g transform="translate(80,152) scale(1.3733333333333)"><circle cx="3" cy="3" r="3"/></g>
<g transform="translate(120,152) scale(1.3733333333333)"><circle cx="3" cy="3" r="3"/></g>
<g transform="translate(136,152) scale(1.3733333333333)"><circle cx="3" cy="3" r="3"/></g>
<g transform="translate(144,152) scale(1.3733333333333)"><circle cx="3" cy="3" r="3"/></g>
<g transform="translate(176,152) scale(1.3733333333333)"><circle cx="3" cy="3" r="3"/></g>
<g transform="translate(184,152) scale(1.3733333333333)"><circle cx="3" cy="3" r="3"/></g>
<g transform="translate(104,160) scale(1.3733333333333)"><circle cx="3" cy="3" r="3"/></g>
<g transform="translate(112,160) scale(1.3733333333333)"><circle cx="3" cy="3" r="3"/></g>
<g transform="translate(144,160) scale(1.3733333333333)"><circle cx="3" cy="3" r="3"/></g>
<g transform="translate(160,160) scale(1.3733333333333)"><circle cx="3" cy="3" r="3"/></g>
<g transform="translate(176,160) scale(1.3733333333333)"><circle cx="3" cy="3" r="3"/></g>
<g transform="translate(192,160) scale(1.3733333333333)"><circle cx="3" cy="3" r="3"/></g>
<g transform="translate(200,160) scale(1.3733333333333)"><circle cx="3" cy="3" r="3"/></g>
<g transform="translate(208,160) scale(1.3733333333333)"><circle cx="3" cy="3" r="3"/></g>
<g transform="translate(80,168) scale(1.3733333333333)"><circle cx="3" cy="3" r="3"/></g>
<g transform="translate(104,168) scale(1.3733333333333)"><circle cx="3" cy="3" r="3"/></g>
<g transform="translate(128,168) scale(1.3733333333333)"><circle cx="3" cy="3" r="3"/></g>
<g transform="translate(136,168) scale(1.3733333333333)"><circle cx="3" cy="3" r="3"/></g>
<g transform="translate(144,168) scale(1.3733333333333)"><circle cx="3" cy="3" r="3"/></g>
<g transform="translate(176,168) scale(1.3733333333333)"><circle cx="3" cy="3" r="3"/></g>
<g transform="translate(184,168) scale(1.3733333333333)"><circle cx="3" cy="3" r="3"/></g>
<g transform="translate(208,168) scale(1.3733333333333)"><circle cx="3" cy="3" r="3"/></g>
<g transform="translate(80,176) scale(1.3733333333333)"><circle cx="3" cy="3" r="3"/></g>
<g transform="translate(96,176) scale(1.3733333333333)"><circle cx="3" cy="3" r="3"/></g>
<g transform="translate(104,176) scale(1.3733333333333)"><circle cx="3" cy="3" r="3"/></g>
<g transform="translate(112,176) scale(1.3733333333333)"><circle cx="3" cy="3" r="3"/></g>
<g transform="translate(120,176) scale(1.3733333333333)"><circle cx="3" cy="3" r="3"/></g>
<g transform="translate(128,176) scale(1.3733333333333)"><circle cx="3" cy="3" r="3"/></g>
<g transform="translate(136,176) scale(1.3733333333333)"><circle cx="3" cy="3" r="3"/></g>
<g transform="translate(144,176) scale(1.3733333333333)"><circle cx="3" cy="3" r="3"/></g>
<g transform="translate(152,176) scale(1.3733333333333)"><circle cx="3" cy="3" r="3"/></g>
<g transform="translate(160,176) scale(1.3733333333333)"><circle cx="3" cy="3" r="3"/></g>
<g transform="translate(168,176) scale(1.3733333333333)"><circle cx="3" cy="3" r="3"/></g>
<g transform="translate(176,176) scale(1.3733333333333)"><circle cx="3" cy="3" r="3"/></g>
<g transform="translate(192,176) scale(1.3733333333333)"><circle cx="3" cy="3" r="3"/></g>
<g transform="translate(80,184) scale(1.3733333333333)"><circle cx="3" cy="3" r="3"/></g>
<g transform="translate(88,184) scale(1.3733333333333)"><circle cx="3" cy="3" r="3"/></g>
<g transform="translate(96,184) scale(1.3733333333333)"><circle cx="3" cy="3" r="3"/></g>
<g transform="translate(112,184) scale(1.3733333333333)"><circle cx="3" cy="3" r="3"/></g>
<g transform="translate(120,184) scale(1.3733333333333)"><circle cx="3" cy="3" r="3"/></g>
<g transform="translate(152,184) scale(1.3733333333333)"><circle cx="3" cy="3" r="3"/></g>
<g transform="translate(160,184) scale(1.3733333333333)"><circle cx="3" cy="3" r="3"/></g>
<g transform="translate(176,184) scale(1.3733333333333)"><circle cx="3" cy="3" r="3"/></g>
<g transform="translate(184,184) scale(1.3733333333333)"><circle cx="3" cy="3" r="3"/></g>
<g transform="translate(192,184) scale(1.3733333333333)"><circle cx="3" cy="3" r="3"/></g>
<g transform="translate(200,184) scale(1.3733333333333)"><circle cx="3" cy="3" r="3"/></g>
<g transform="translate(208,184) scale(1.3733333333333)"><circle cx="3" cy="3" r="3"/></g>
<g transform="translate(80,192) scale(1.3733333333333)"><circle cx="3" cy="3" r="3"/></g>
<g transform="translate(88,192) scale(1.3733333333333)"><circle cx="3" cy="3" r="3"/></g>
<g transform="translate(120,192) scale(1.3733333333333)"><circle cx="3" cy="3" r="3"/></g>
<g transform="translate(128,192) scale(1.3733333333333)"><circle cx="3" cy="3" r="3"/></g>
<g transform="translate(136,192) scale(1.3733333333333)"><circle cx="3" cy="3" r="3"/></g>
<g transform="translate(152,192) scale(1.3733333333333)"><circle cx="3" cy="3" r="3"/></g>
<g transform="translate(184,192) scale(1.3733333333333)"><circle cx="3" cy="3" r="3"/></g>
<g transform="translate(192,192) scale(1.3733333333333)"><circle cx="3" cy="3" r="3"/></g>
<g transform="translate(208,192) scale(1.3733333333333)"><circle cx="3" cy="3" r="3"/></g>
<g transform="translate(88,200) scale(1.3733333333333)"><circle cx="3" cy="3" r="3"/></g>
<g transform="translate(104,200) scale(1.3733333333333)"><circle cx="3" cy="3" r="3"/></g>
<g transform="translate(128,200) scale(1.3733333333333)"><circle cx="3" cy="3" r="3"/></g>
<g transform="translate(144,200) scale(1.3733333333333)"><circle cx="3" cy="3" r="3"/></g>
<g transform="translate(168,200) scale(1.3733333333333)"><circle cx="3" cy="3" r="3"/></g>
<g transform="translate(176,200) scale(1.3733333333333)"><circle cx="3" cy="3" r="3"/></g>
<g transform="translate(184,200) scale(1.3733333333333)"><circle cx="3" cy="3" r="3"/></g>
<g transform="translate(208,200) scale(1.3733333333333)"><circle cx="3" cy="3" r="3"/></g>
<g transform="translate(80,208) scale(1.3733333333333)"><circle cx="3" cy="3" r="3"/></g>
<g transform="translate(88,208) scale(1.3733333333333)"><circle cx="3" cy="3" r="3"/></g>
<g transform="translate(104,208) scale(1.3733333333333)"><circle cx="3" cy="3" r="3"/></g>
<g transform="translate(112,208) scale(1.3733333333333)"><circle cx="3" cy="3" r="3"/></g>
<g transform="translate(120,208) scale(1.3733333333333)"><circle cx="3" cy="3" r="3"/></g>
<g transform="translate(136,208) scale(1.3733333333333)"><circle cx="3" cy="3" r="3"/></g>
<g transform="translate(168,208) scale(1.3733333333333)"><circle cx="3" cy="3" r="3"/></g>
<g transform="translate(176,208) scale(1.3733333333333)"><circle cx="3" cy="3" r="3"/></g>
<g transform="translate(184,208) scale(1.3733333333333)"><circle cx="3" cy="3" r="3"/></g>
<g transform="translate(192,208) scale(1.3733333333333)"><circle cx="3" cy="3" r="3"/></g>
<g transform="translate(200,208) scale(1.3733333333333)"><circle cx="3" cy="3" r="3"/></g>
<g transform="translate(208,208) scale(1.3733333333333)"><circle cx="3" cy="3" r="3"/></g>
<g transform="translate(16,16)"><g transform="scale(4)"><path d="M4.5,14h5.1C12,14,14,12,14,9.6V4.5C14,2,12,0,9.5,0H4.4C2,0,0,2,0,4.4v5.1C0,12,2,14,4.5,14z M12,4.8v4.4 c0,1.5-1.3,2.8-2.8,2.8H4.8C3.2,12,2,10.8,2,9.2V4.8C2,3.3,3.3,2,4.8,2h4.4C10.8,2,12,3.2,12,4.8z"/></g></g>
<g transform="translate(160,16)"><g transform="scale(4)"><path d="M4.5,14h5.1C12,14,14,12,14,9.6V4.5C14,2,12,0,9.5,0H4.4C2,0,0,2,0,4.4v5.1C0,12,2,14,4.5,14z M12,4.8v4.4 c0,1.5-1.3,2.8-2.8,2.8H4.8C3.2,12,2,10.8,2,9.2V4.8C2,3.3,3.3,2,4.8,2h4.4C10.8,2,12,3.2,12,4.8z"/></g></g>
<g transform="translate(16,160)"><g transform="scale(4)"><path d="M4.5,14h5.1C12,14,14,12,14,9.6V4.5C14,2,12,0,9.5,0H4.4C2,0,0,2,0,4.4v5.1C0,12,2,14,4.5,14z M12,4.8v4.4 c0,1.5-1.3,2.8-2.8,2.8H4.8C3.2,12,2,10.8,2,9.2V4.8C2,3.3,3.3,2,4.8,2h4.4C10.8,2,12,3.2,12,4.8z"/></g></g>
<g transform="translate(32,32)"><g transform="scale(4)"><path d="M6,1.7v2.7C6,5.2,5.2,6,4.3,6H1.7C0.7,6,0,5.3,0,4.3V1.7C0,0.8,0.8,0,1.7,0h2.7C5.3,0,6,0.7,6,1.7z"/></g></g>
<g transform="translate(176,32)"><g transform="scale(4)"><path d="M6,1.7v2.7C6,5.2,5.2,6,4.3,6H1.7C0.7,6,0,5.3,0,4.3V1.7C0,0.8,0.8,0,1.7,0h2.7C5.3,0,6,0.7,6,1.7z"/></g></g>
<g transform="translate(32,176)"><g transform="scale(4)"><path d="M6,1.7v2.7C6,5.2,5.2,6,4.3,6H1.7C0.7,6,0,5.3,0,4.3V1.7C0,0.8,0.8,0,1.7,0h2.7C5.3,0,6,0.7,6,1.7z"/></g></g>
</g></svg>
